<svg xmlns="http://www.w3.org/2000/svg" viewBox="167.04000000000002 578.88 1108.8 282.24" id="svg1" version="1.1" style="max-height: 500px" width="1108.8" height="282.24">
  <defs id="defs1">
    <clipPath id="clipPath2" clipPathUnits="userSpaceOnUse">
      <path id="path2" transform="translate(-231.9685,-516.75121)" d="M 0,1080 H 1080 V 0 H 0 Z"/>
    </clipPath>
    <clipPath id="clipPath4" clipPathUnits="userSpaceOnUse">
      <path id="path4" transform="translate(-156.6196,-525.66671)" d="M 0,1080 H 1080 V 0 H 0 Z"/>
    </clipPath>
    <clipPath id="clipPath6" clipPathUnits="userSpaceOnUse">
      <path id="path6" transform="translate(-238.53091,-525.66671)" d="M 0,1080 H 1080 V 0 H 0 Z"/>
    </clipPath>
    <clipPath id="clipPath8" clipPathUnits="userSpaceOnUse">
      <path id="path8" d="M 0,1080 H 1080 V 0 H 0 Z"/>
    </clipPath>
    <clipPath id="clipPath10" clipPathUnits="userSpaceOnUse">
      <path id="path10" transform="translate(-337.90201,-526.65731)" d="M 0,1080 H 1080 V 0 H 0 Z"/>
    </clipPath>
    <clipPath id="clipPath12" clipPathUnits="userSpaceOnUse">
      <path id="path12" transform="translate(-388.05241,-564.92041)" d="M 0,1080 H 1080 V 0 H 0 Z"/>
    </clipPath>
    <clipPath id="clipPath14" clipPathUnits="userSpaceOnUse">
      <path id="path14" d="M 0,1080 H 1080 V 0 H 0 Z"/>
    </clipPath>
    <clipPath id="clipPath16" clipPathUnits="userSpaceOnUse">
      <path id="path16" transform="translate(-625.88362,-515.07961)" d="M 0,1080 H 1080 V 0 H 0 Z"/>
    </clipPath>
    <clipPath id="clipPath18" clipPathUnits="userSpaceOnUse">
      <path id="path18" transform="translate(-684.95012,-564.92041)" d="M 0,1080 H 1080 V 0 H 0 Z"/>
    </clipPath>
    <clipPath id="clipPath20" clipPathUnits="userSpaceOnUse">
      <path id="path20" d="M 0,1080 H 1080 V 0 H 0 Z"/>
    </clipPath>
    <clipPath id="clipPath22" clipPathUnits="userSpaceOnUse">
      <path id="path22" transform="translate(-744.07812,-564.92041)" d="M 0,1080 H 1080 V 0 H 0 Z"/>
    </clipPath>
    <clipPath id="clipPath24" clipPathUnits="userSpaceOnUse">
      <path id="path24" transform="translate(-788.65659,-564.92041)" d="M 0,1080 H 1080 V 0 H 0 Z"/>
    </clipPath>
    <clipPath id="clipPath26" clipPathUnits="userSpaceOnUse">
      <path id="path26" d="M 0,1080 H 1080 V 0 H 0 Z"/>
    </clipPath>
    <clipPath id="clipPath28" clipPathUnits="userSpaceOnUse">
      <path id="path28" transform="translate(-868.89632,-564.92041)" d="M 0,1080 H 1080 V 0 H 0 Z"/>
    </clipPath>
    <clipPath id="clipPath30" clipPathUnits="userSpaceOnUse">
      <path id="path30" transform="translate(-923.38045,-526.65731)" d="M 0,1080 H 1080 V 0 H 0 Z"/>
    </clipPath>
    <clipPath id="clipPath32" clipPathUnits="userSpaceOnUse">
      <path id="path32" transform="translate(-636.34331,-618.11272)" d="M 0,1080 H 1080 V 0 H 0 Z"/>
    </clipPath>
    <clipPath id="clipPath34" clipPathUnits="userSpaceOnUse">
      <path id="path34" d="M 0,1080 H 1080 V 0 H 0 Z"/>
    </clipPath>
    <clipPath id="clipPath36" clipPathUnits="userSpaceOnUse">
      <path id="path36" transform="translate(-524.42651,-479.87781)" d="M 0,1080 H 1080 V 0 H 0 Z"/>
    </clipPath>
    <clipPath id="clipPath38" clipPathUnits="userSpaceOnUse">
      <path id="path38" transform="translate(-540.67381,-461.88731)" d="M 0,1080 H 1080 V 0 H 0 Z"/>
    </clipPath>
    <clipPath id="clipPath40" clipPathUnits="userSpaceOnUse">
      <path id="path40" transform="translate(-231.9685,-516.75121)" d="M 0,1080 H 1080 V 0 H 0 Z"/>
    </clipPath>
    <clipPath id="clipPath42" clipPathUnits="userSpaceOnUse">
      <path id="path42" transform="translate(-156.6196,-525.66671)" d="M 0,1080 H 1080 V 0 H 0 Z"/>
    </clipPath>
    <clipPath id="clipPath44" clipPathUnits="userSpaceOnUse">
      <path id="path44" transform="translate(-238.53091,-525.66671)" d="M 0,1080 H 1080 V 0 H 0 Z"/>
    </clipPath>
    <clipPath id="clipPath46" clipPathUnits="userSpaceOnUse">
      <path id="path46" d="M 0,1080 H 1080 V 0 H 0 Z"/>
    </clipPath>
    <clipPath id="clipPath48" clipPathUnits="userSpaceOnUse">
      <path id="path48" transform="translate(-337.90201,-526.65731)" d="M 0,1080 H 1080 V 0 H 0 Z"/>
    </clipPath>
    <clipPath id="clipPath50" clipPathUnits="userSpaceOnUse">
      <path id="path50" transform="translate(-388.05241,-564.92041)" d="M 0,1080 H 1080 V 0 H 0 Z"/>
    </clipPath>
    <clipPath id="clipPath52" clipPathUnits="userSpaceOnUse">
      <path id="path52" d="M 0,1080 H 1080 V 0 H 0 Z"/>
    </clipPath>
    <clipPath id="clipPath54" clipPathUnits="userSpaceOnUse">
      <path id="path54" transform="translate(-625.88362,-515.07961)" d="M 0,1080 H 1080 V 0 H 0 Z"/>
    </clipPath>
    <clipPath id="clipPath56" clipPathUnits="userSpaceOnUse">
      <path id="path56" transform="translate(-684.95012,-564.92041)" d="M 0,1080 H 1080 V 0 H 0 Z"/>
    </clipPath>
    <clipPath id="clipPath58" clipPathUnits="userSpaceOnUse">
      <path id="path58" d="M 0,1080 H 1080 V 0 H 0 Z"/>
    </clipPath>
    <clipPath id="clipPath60" clipPathUnits="userSpaceOnUse">
      <path id="path60" transform="translate(-744.07812,-564.92041)" d="M 0,1080 H 1080 V 0 H 0 Z"/>
    </clipPath>
    <clipPath id="clipPath62" clipPathUnits="userSpaceOnUse">
      <path id="path62" transform="translate(-788.65659,-564.92041)" d="M 0,1080 H 1080 V 0 H 0 Z"/>
    </clipPath>
    <clipPath id="clipPath64" clipPathUnits="userSpaceOnUse">
      <path id="path64" d="M 0,1080 H 1080 V 0 H 0 Z"/>
    </clipPath>
    <clipPath id="clipPath66" clipPathUnits="userSpaceOnUse">
      <path id="path66" transform="translate(-868.89632,-564.92041)" d="M 0,1080 H 1080 V 0 H 0 Z"/>
    </clipPath>
    <clipPath id="clipPath68" clipPathUnits="userSpaceOnUse">
      <path id="path68" transform="translate(-923.38045,-526.65731)" d="M 0,1080 H 1080 V 0 H 0 Z"/>
    </clipPath>
    <clipPath id="clipPath70" clipPathUnits="userSpaceOnUse">
      <path id="path70" transform="translate(-636.34331,-618.11272)" d="M 0,1080 H 1080 V 0 H 0 Z"/>
    </clipPath>
    <clipPath id="clipPath72" clipPathUnits="userSpaceOnUse">
      <path id="path72" d="M 0,1080 H 1080 V 0 H 0 Z"/>
    </clipPath>
    <clipPath id="clipPath74" clipPathUnits="userSpaceOnUse">
      <path id="path74" transform="translate(-524.42651,-479.87781)" d="M 0,1080 H 1080 V 0 H 0 Z"/>
    </clipPath>
    <clipPath id="clipPath76" clipPathUnits="userSpaceOnUse">
      <path id="path76" transform="translate(-540.67381,-461.88731)" d="M 0,1080 H 1080 V 0 H 0 Z"/>
    </clipPath>
  </defs>
  
    
  
  <g id="layer-MC0">
    <path clip-path="url(#clipPath2)" transform="matrix(1.3333333,0,0,-1.3333333,309.29133,750.9984)" style="fill:#212c61;fill-opacity:1;fill-rule:nonzero;stroke:none" d="m 0,0 h -11.95 l -9.287,13.436 h -0.557 -9.658 V 0 h -11.145 v 22.289 h 11.145 6.5 2.539 c 3.344,0 5.892,0.732 7.646,2.198 1.754,1.465 2.632,3.539 2.632,6.223 0,2.682 -0.867,4.745 -2.601,6.191 -1.733,1.444 -4.293,2.167 -7.677,2.167 h -2.539 -6.5 -11.145 v 9.101 h 20.803 c 6.439,0 11.536,-1.569 15.293,-4.705 3.755,-3.138 5.634,-7.389 5.634,-12.754 0,-3.592 -0.866,-6.687 -2.6,-9.288 -1.734,-2.6 -4.17,-4.581 -7.306,-5.943 z" id="path1"/>
    <path clip-path="url(#clipPath4)" transform="matrix(1.3333333,0,0,-1.3333333,208.82613,739.11107)" style="fill:#212c61;fill-opacity:1;fill-rule:nonzero;stroke:none" d="M 0,0 V -8.916 H -11.083 V 19.813 H 0 10.153 22.289 V 11.144 L 0,11.144 V 7.615 Z m 0,30.338 h -11.083 v 8.916 H 25.26 V 30.338 H 10.153 Z" id="path3"/>
    <path clip-path="url(#clipPath6)" transform="matrix(1.3333333,0,0,-1.3333333,318.0412,739.11107)" style="fill:#212c61;fill-opacity:1;fill-rule:nonzero;stroke:none" d="M 0,0 H 11.083 22.785 37.21 V -8.916 H 0 Z M 11.083,11.144 H 0 v 8.669 H 11.083 21.236 33.372 V 11.144 H 22.785 Z m 0,19.194 H 0 v 8.916 H 36.343 V 30.338 H 21.236 Z" id="path5"/>
    <path clip-path="url(#clipPath8)" transform="matrix(1.3333333,0,0,-1.3333333,0,1440)" style="fill:#212c61;fill-opacity:1;fill-rule:nonzero;stroke:none" d="m 283.232,564.92 h 11.144 v -48.169 h -11.144 z" id="path7"/>
    <path clip-path="url(#clipPath10)" transform="matrix(1.3333333,0,0,-1.3333333,450.536,737.79027)" style="fill:#212c61;fill-opacity:1;fill-rule:nonzero;stroke:none" d="M 0,0 V 14.117 H 10.216 V -5.449 c -2.6,-1.94 -5.624,-3.447 -9.07,-4.519 -3.448,-1.074 -6.904,-1.61 -10.371,-1.61 -4.995,0 -9.484,1.063 -13.467,3.189 -3.983,2.125 -7.11,5.087 -9.38,8.884 -2.27,3.797 -3.405,8.08 -3.405,12.848 0,4.767 1.135,9.049 3.405,12.847 2.27,3.797 5.418,6.758 9.442,8.885 4.025,2.125 8.555,3.188 13.591,3.188 8.626,0 15.333,-2.766 20.122,-8.296 l -7.12,-6.625 c -3.426,3.631 -7.575,5.448 -12.445,5.448 -4.665,0 -8.451,-1.424 -11.361,-4.272 -2.911,-2.848 -4.365,-6.563 -4.365,-11.144 0,-4.541 1.444,-8.246 4.334,-11.114 2.888,-2.869 6.645,-4.303 11.269,-4.303 3.177,0 6.046,0.681 8.605,2.043" id="path9"/>
    <path clip-path="url(#clipPath12)" transform="matrix(1.3333333,0,0,-1.3333333,517.4032,686.7728)" style="fill:#212c61;fill-opacity:1;fill-rule:nonzero;stroke:none" d="M 0,0 H 11.082 V -48.169 H 0 v 19.75 h -21.856 v -19.75 H -33 V 0 h 11.144 V -19.007 H 0 Z" id="path11"/>
    <path clip-path="url(#clipPath14)" transform="matrix(1.3333333,0,0,-1.3333333,0,1440)" style="fill:#212c61;fill-opacity:1;fill-rule:nonzero;stroke:none" d="m 422.538,546.78 h 11.144 v -30.029 h -11.144 z m 11.145,9.039 h -11.145 -6.501 -8.853 v 9.101 h 41.915 v -9.101 h -10.401 z" id="path13"/>
    <path clip-path="url(#clipPath16)" transform="matrix(1.3333333,0,0,-1.3333333,834.51147,753.2272)" style="fill:#212c61;fill-opacity:1;fill-rule:nonzero;stroke:none" d="m 0,0 c -3.756,0 -7.42,0.515 -10.99,1.548 -3.57,1.031 -6.429,2.373 -8.575,4.024 l 3.777,8.42 c 2.064,-1.527 4.52,-2.745 7.368,-3.652 2.848,-0.909 5.675,-1.363 8.482,-1.363 3.178,0 5.52,0.465 7.027,1.393 1.507,0.929 2.261,2.177 2.261,3.746 0,1.073 -0.403,1.991 -1.208,2.756 -0.805,0.763 -1.858,1.351 -3.158,1.764 -1.3,0.412 -2.786,0.836 -4.457,1.269 -1.672,0.434 -3.386,0.836 -5.139,1.207 -1.755,0.372 -3.468,0.929 -5.139,1.672 -1.672,0.743 -3.169,1.589 -4.489,2.539 -1.322,0.949 -2.384,2.238 -3.189,3.869 -0.805,1.631 -1.207,3.499 -1.207,5.604 0,4.374 1.743,7.976 5.232,10.803 3.488,2.828 8.513,4.242 15.076,4.242 6.645,0 12.197,-1.424 16.655,-4.273 l -3.406,-8.482 c -4.416,2.559 -8.853,3.839 -13.311,3.839 -3.137,0 -5.448,-0.516 -6.934,-1.547 -1.486,-1.033 -2.229,-2.354 -2.229,-3.963 0,-1.074 0.402,-1.992 1.207,-2.755 0.805,-0.764 1.858,-1.342 3.158,-1.734 1.3,-0.393 2.795,-0.805 4.489,-1.239 1.691,-0.433 3.405,-0.835 5.138,-1.207 1.734,-0.371 3.437,-0.919 5.108,-1.64 1.672,-0.723 3.168,-1.548 4.489,-2.477 1.321,-0.928 2.384,-2.198 3.189,-3.808 0.805,-1.609 1.207,-3.488 1.207,-5.634 0,-4.252 -1.764,-7.801 -5.294,-10.649 C 11.609,1.424 6.563,0 0,0" id="path15"/>
    <path clip-path="url(#clipPath18)" transform="matrix(1.3333333,0,0,-1.3333333,913.2668,686.7728)" style="fill:#212c61;fill-opacity:1;fill-rule:nonzero;stroke:none" d="M 0,0 H 11.083 V -48.169 H 0 v 19.75 h -21.856 v -19.75 H -33 V 0 h 11.144 V -19.007 H 0 Z" id="path17"/>
    <path clip-path="url(#clipPath20)" transform="matrix(1.3333333,0,0,-1.3333333,0,1440)" style="fill:#212c61;fill-opacity:1;fill-rule:nonzero;stroke:none" d="m 704.081,564.92 h 11.144 v -48.169 h -11.144 z" id="path19"/>
    <path clip-path="url(#clipPath22)" transform="matrix(1.3333333,0,0,-1.3333333,992.10413,686.7728)" style="fill:#212c61;fill-opacity:1;fill-rule:nonzero;stroke:none" d="m 0,0 c 6.439,0 11.536,-1.569 15.293,-4.706 3.755,-3.137 5.634,-7.389 5.634,-12.754 0,-5.366 -1.879,-9.618 -5.634,-12.754 C 11.536,-33.352 6.439,-34.919 0,-34.919 h -9.659 v -13.25 h -11.144 v 22.351 h 11.144 9.04 c 3.384,0 5.943,0.722 7.677,2.167 1.734,1.444 2.601,3.507 2.601,6.191 0,2.683 -0.867,4.746 -2.601,6.192 -1.734,1.444 -4.293,2.167 -7.677,2.167 h -9.04 -11.144 V 0 Z" id="path21"/>
    <path clip-path="url(#clipPath24)" transform="matrix(1.3333333,0,0,-1.3333333,1051.5421,686.7728)" style="fill:#212c61;fill-opacity:1;fill-rule:nonzero;stroke:none" d="m 0,0 c 6.439,0 11.536,-1.569 15.293,-4.706 3.755,-3.137 5.634,-7.389 5.634,-12.754 0,-5.366 -1.879,-9.618 -5.634,-12.754 C 11.536,-33.352 6.439,-34.919 0,-34.919 h -9.659 v -13.25 h -11.144 v 22.351 h 11.144 9.04 c 3.384,0 5.943,0.722 7.677,2.167 1.734,1.444 2.601,3.507 2.601,6.191 0,2.683 -0.867,4.746 -2.601,6.192 -1.734,1.444 -4.293,2.167 -7.677,2.167 h -9.04 -11.144 V 0 Z" id="path23"/>
    <path clip-path="url(#clipPath26)" transform="matrix(1.3333333,0,0,-1.3333333,0,1440)" style="fill:#212c61;fill-opacity:1;fill-rule:nonzero;stroke:none" d="m 816.578,564.92 h 11.144 v -48.169 h -11.144 z" id="path25"/>
    <path clip-path="url(#clipPath28)" transform="matrix(1.3333333,0,0,-1.3333333,1158.5284,686.7728)" style="fill:#212c61;fill-opacity:1;fill-rule:nonzero;stroke:none" d="M 0,0 H 10.959 V -48.169 H 1.857 l -23.961,29.223 v -29.223 h -11.02 V 0 h 9.225 L 0,-29.224 Z" id="path27"/>
    <path clip-path="url(#clipPath30)" transform="matrix(1.3333333,0,0,-1.3333333,1231.1739,737.79027)" style="fill:#212c61;fill-opacity:1;fill-rule:nonzero;stroke:none" d="M 0,0 V 14.117 H 10.216 V -5.449 c -2.601,-1.94 -5.624,-3.447 -9.07,-4.519 -3.447,-1.074 -6.904,-1.61 -10.371,-1.61 -4.995,0 -9.483,1.063 -13.466,3.189 -3.984,2.125 -7.111,5.087 -9.381,8.884 -2.27,3.797 -3.405,8.08 -3.405,12.848 0,4.767 1.135,9.049 3.405,12.847 2.27,3.797 5.418,6.758 9.443,8.885 4.024,2.125 8.553,3.188 13.59,3.188 8.626,0 15.333,-2.766 20.122,-8.296 l -7.12,-6.625 c -3.427,3.631 -7.575,5.448 -12.445,5.448 -4.665,0 -8.451,-1.424 -11.361,-4.272 -2.91,-2.848 -4.365,-6.563 -4.365,-11.144 0,-4.541 1.444,-8.246 4.334,-11.114 2.888,-2.869 6.645,-4.303 11.268,-4.303 3.178,0 6.047,0.681 8.606,2.043" id="path29"/>
    <path clip-path="url(#clipPath32)" transform="matrix(1.3333333,0,0,-1.3333333,848.45773,615.84973)" style="fill:#212c61;fill-opacity:1;fill-rule:nonzero;stroke:none" d="m 0,0 -66.797,-64.139 -29.357,25.1 L -56.952,0 Z m 5.577,-156.225 h -60.768 l -55.19,54.217 -54.019,-54.217 h -60.474 l 84.256,79.518 L -220.764,0 h 59.888 c 18.981,-18.207 50.392,-47.39 94.236,-87.55 z" id="path31"/>
    <path clip-path="url(#clipPath34)" transform="matrix(1.3333333,0,0,-1.3333333,0,1440)" style="fill:#212c61;fill-opacity:1;fill-rule:nonzero;stroke:none" d="m 505.542,479.878 h 4.023 v -17.387 h -4.023 z" id="path33"/>
    <path clip-path="url(#clipPath36)" transform="matrix(1.3333333,0,0,-1.3333333,699.23533,800.16293)" style="fill:#212c61;fill-opacity:1;fill-rule:nonzero;stroke:none" d="M 0,0 H 3.956 V -17.387 H 0.67 l -8.649,10.548 v -10.548 h -3.977 V 0 h 3.329 L 0,-10.549 Z" id="path35"/>
    <path clip-path="url(#clipPath38)" transform="matrix(1.3333333,0,0,-1.3333333,720.8984,824.15027)" style="fill:#212c61;fill-opacity:1;fill-rule:nonzero;stroke:none" d="m 0,0 c -1.773,0 -3.375,0.383 -4.805,1.151 -1.43,0.767 -2.552,1.836 -3.363,3.207 -0.813,1.37 -1.218,2.916 -1.218,4.637 0,1.721 0.405,3.267 1.218,4.638 0.811,1.37 1.936,2.439 3.374,3.207 1.438,0.767 3.051,1.151 4.839,1.151 1.49,0 2.845,-0.265 4.067,-0.794 1.222,-0.529 2.242,-1.293 3.062,-2.291 l -2.57,-2.391 c -1.177,1.371 -2.63,2.056 -4.358,2.056 -1.639,0 -2.976,-0.518 -4.012,-1.553 -1.035,-1.036 -1.553,-2.373 -1.553,-4.012 0,-1.639 0.518,-2.976 1.553,-4.011 1.036,-1.036 2.373,-1.553 4.012,-1.553 1.728,0 3.181,0.685 4.358,2.056 L 7.174,3.106 C 6.354,2.108 5.334,1.341 4.112,0.804 2.89,0.268 1.52,0 0,0" id="path37"/>
    <path clip-path="url(#clipPath40)" transform="matrix(1.3333333,0,0,-1.3333333,309.29133,750.9984)" style="fill:#ffffff;fill-opacity:1;fill-rule:nonzero;stroke:none" d="m 0,0 h -11.95 l -9.287,13.436 h -0.557 -9.658 V 0 h -11.145 v 22.289 h 11.145 6.5 2.539 c 3.344,0 5.892,0.732 7.646,2.198 1.754,1.465 2.632,3.539 2.632,6.223 0,2.682 -0.867,4.745 -2.601,6.191 -1.733,1.444 -4.293,2.167 -7.677,2.167 h -2.539 -6.5 -11.145 v 9.101 h 20.803 c 6.439,0 11.536,-1.569 15.293,-4.705 3.755,-3.138 5.634,-7.389 5.634,-12.754 0,-3.592 -0.866,-6.687 -2.6,-9.288 -1.734,-2.6 -4.17,-4.581 -7.306,-5.943 z" id="path39"/>
    <path clip-path="url(#clipPath42)" transform="matrix(1.3333333,0,0,-1.3333333,208.82613,739.11107)" style="fill:#ffffff;fill-opacity:1;fill-rule:nonzero;stroke:none" d="M 0,0 V -8.916 H -11.083 V 19.813 H 0 10.153 22.289 V 11.144 L 0,11.144 V 7.615 Z m 0,30.338 h -11.083 v 8.916 H 25.26 V 30.338 H 10.153 Z" id="path41"/>
    <path clip-path="url(#clipPath44)" transform="matrix(1.3333333,0,0,-1.3333333,318.0412,739.11107)" style="fill:#ffffff;fill-opacity:1;fill-rule:nonzero;stroke:none" d="M 0,0 H 11.083 22.785 37.21 V -8.916 H 0 Z M 11.083,11.144 H 0 v 8.669 H 11.083 21.236 33.372 V 11.144 H 22.785 Z m 0,19.194 H 0 v 8.916 H 36.343 V 30.338 H 21.236 Z" id="path43"/>
    <path clip-path="url(#clipPath46)" transform="matrix(1.3333333,0,0,-1.3333333,0,1440)" style="fill:#ffffff;fill-opacity:1;fill-rule:nonzero;stroke:none" d="m 283.232,564.92 h 11.144 v -48.169 h -11.144 z" id="path45"/>
    <path clip-path="url(#clipPath48)" transform="matrix(1.3333333,0,0,-1.3333333,450.536,737.79027)" style="fill:#ffffff;fill-opacity:1;fill-rule:nonzero;stroke:none" d="M 0,0 V 14.117 H 10.216 V -5.449 c -2.6,-1.94 -5.624,-3.447 -9.07,-4.519 -3.448,-1.074 -6.904,-1.61 -10.371,-1.61 -4.995,0 -9.484,1.063 -13.467,3.189 -3.983,2.125 -7.11,5.087 -9.38,8.884 -2.27,3.797 -3.405,8.08 -3.405,12.848 0,4.767 1.135,9.049 3.405,12.847 2.27,3.797 5.418,6.758 9.442,8.885 4.025,2.125 8.555,3.188 13.591,3.188 8.626,0 15.333,-2.766 20.122,-8.296 l -7.12,-6.625 c -3.426,3.631 -7.575,5.448 -12.445,5.448 -4.665,0 -8.451,-1.424 -11.361,-4.272 -2.911,-2.848 -4.365,-6.563 -4.365,-11.144 0,-4.541 1.444,-8.246 4.334,-11.114 2.888,-2.869 6.645,-4.303 11.269,-4.303 3.177,0 6.046,0.681 8.605,2.043" id="path47"/>
    <path clip-path="url(#clipPath50)" transform="matrix(1.3333333,0,0,-1.3333333,517.4032,686.7728)" style="fill:#ffffff;fill-opacity:1;fill-rule:nonzero;stroke:none" d="M 0,0 H 11.082 V -48.169 H 0 v 19.75 h -21.856 v -19.75 H -33 V 0 h 11.144 V -19.007 H 0 Z" id="path49"/>
    <path clip-path="url(#clipPath52)" transform="matrix(1.3333333,0,0,-1.3333333,0,1440)" style="fill:#ffffff;fill-opacity:1;fill-rule:nonzero;stroke:none" d="m 422.538,546.78 h 11.144 v -30.029 h -11.144 z m 11.145,9.039 h -11.145 -6.501 -8.853 v 9.101 h 41.915 v -9.101 h -10.401 z" id="path51"/>
    <path clip-path="url(#clipPath54)" transform="matrix(1.3333333,0,0,-1.3333333,834.51147,753.2272)" style="fill:#ffffff;fill-opacity:1;fill-rule:nonzero;stroke:none" d="m 0,0 c -3.756,0 -7.42,0.515 -10.99,1.548 -3.57,1.031 -6.429,2.373 -8.575,4.024 l 3.777,8.42 c 2.064,-1.527 4.52,-2.745 7.368,-3.652 2.848,-0.909 5.675,-1.363 8.482,-1.363 3.178,0 5.52,0.465 7.027,1.393 1.507,0.929 2.261,2.177 2.261,3.746 0,1.073 -0.403,1.991 -1.208,2.756 -0.805,0.763 -1.858,1.351 -3.158,1.764 -1.3,0.412 -2.786,0.836 -4.457,1.269 -1.672,0.434 -3.386,0.836 -5.139,1.207 -1.755,0.372 -3.468,0.929 -5.139,1.672 -1.672,0.743 -3.169,1.589 -4.489,2.539 -1.322,0.949 -2.384,2.238 -3.189,3.869 -0.805,1.631 -1.207,3.499 -1.207,5.604 0,4.374 1.743,7.976 5.232,10.803 3.488,2.828 8.513,4.242 15.076,4.242 6.645,0 12.197,-1.424 16.655,-4.273 l -3.406,-8.482 c -4.416,2.559 -8.853,3.839 -13.311,3.839 -3.137,0 -5.448,-0.516 -6.934,-1.547 -1.486,-1.033 -2.229,-2.354 -2.229,-3.963 0,-1.074 0.402,-1.992 1.207,-2.755 0.805,-0.764 1.858,-1.342 3.158,-1.734 1.3,-0.393 2.795,-0.805 4.489,-1.239 1.691,-0.433 3.405,-0.835 5.138,-1.207 1.734,-0.371 3.437,-0.919 5.108,-1.64 1.672,-0.723 3.168,-1.548 4.489,-2.477 1.321,-0.928 2.384,-2.198 3.189,-3.808 0.805,-1.609 1.207,-3.488 1.207,-5.634 0,-4.252 -1.764,-7.801 -5.294,-10.649 C 11.609,1.424 6.563,0 0,0" id="path53"/>
    <path clip-path="url(#clipPath56)" transform="matrix(1.3333333,0,0,-1.3333333,913.2668,686.7728)" style="fill:#ffffff;fill-opacity:1;fill-rule:nonzero;stroke:none" d="M 0,0 H 11.083 V -48.169 H 0 v 19.75 h -21.856 v -19.75 H -33 V 0 h 11.144 V -19.007 H 0 Z" id="path55"/>
    <path clip-path="url(#clipPath58)" transform="matrix(1.3333333,0,0,-1.3333333,0,1440)" style="fill:#ffffff;fill-opacity:1;fill-rule:nonzero;stroke:none" d="m 704.081,564.92 h 11.144 v -48.169 h -11.144 z" id="path57"/>
    <path clip-path="url(#clipPath60)" transform="matrix(1.3333333,0,0,-1.3333333,992.10413,686.7728)" style="fill:#ffffff;fill-opacity:1;fill-rule:nonzero;stroke:none" d="m 0,0 c 6.439,0 11.536,-1.569 15.293,-4.706 3.755,-3.137 5.634,-7.389 5.634,-12.754 0,-5.366 -1.879,-9.618 -5.634,-12.754 C 11.536,-33.352 6.439,-34.919 0,-34.919 h -9.659 v -13.25 h -11.144 v 22.351 h 11.144 9.04 c 3.384,0 5.943,0.722 7.677,2.167 1.734,1.444 2.601,3.507 2.601,6.191 0,2.683 -0.867,4.746 -2.601,6.192 -1.734,1.444 -4.293,2.167 -7.677,2.167 h -9.04 -11.144 V 0 Z" id="path59"/>
    <path clip-path="url(#clipPath62)" transform="matrix(1.3333333,0,0,-1.3333333,1051.5421,686.7728)" style="fill:#ffffff;fill-opacity:1;fill-rule:nonzero;stroke:none" d="m 0,0 c 6.439,0 11.536,-1.569 15.293,-4.706 3.755,-3.137 5.634,-7.389 5.634,-12.754 0,-5.366 -1.879,-9.618 -5.634,-12.754 C 11.536,-33.352 6.439,-34.919 0,-34.919 h -9.659 v -13.25 h -11.144 v 22.351 h 11.144 9.04 c 3.384,0 5.943,0.722 7.677,2.167 1.734,1.444 2.601,3.507 2.601,6.191 0,2.683 -0.867,4.746 -2.601,6.192 -1.734,1.444 -4.293,2.167 -7.677,2.167 h -9.04 -11.144 V 0 Z" id="path61"/>
    <path clip-path="url(#clipPath64)" transform="matrix(1.3333333,0,0,-1.3333333,0,1440)" style="fill:#ffffff;fill-opacity:1;fill-rule:nonzero;stroke:none" d="m 816.578,564.92 h 11.144 v -48.169 h -11.144 z" id="path63"/>
    <path clip-path="url(#clipPath66)" transform="matrix(1.3333333,0,0,-1.3333333,1158.5284,686.7728)" style="fill:#ffffff;fill-opacity:1;fill-rule:nonzero;stroke:none" d="M 0,0 H 10.959 V -48.169 H 1.857 l -23.961,29.223 v -29.223 h -11.02 V 0 h 9.225 L 0,-29.224 Z" id="path65"/>
    <path clip-path="url(#clipPath68)" transform="matrix(1.3333333,0,0,-1.3333333,1231.1739,737.79027)" style="fill:#ffffff;fill-opacity:1;fill-rule:nonzero;stroke:none" d="M 0,0 V 14.117 H 10.216 V -5.449 c -2.601,-1.94 -5.624,-3.447 -9.07,-4.519 -3.447,-1.074 -6.904,-1.61 -10.371,-1.61 -4.995,0 -9.483,1.063 -13.466,3.189 -3.984,2.125 -7.111,5.087 -9.381,8.884 -2.27,3.797 -3.405,8.08 -3.405,12.848 0,4.767 1.135,9.049 3.405,12.847 2.27,3.797 5.418,6.758 9.443,8.885 4.024,2.125 8.553,3.188 13.59,3.188 8.626,0 15.333,-2.766 20.122,-8.296 l -7.12,-6.625 c -3.427,3.631 -7.575,5.448 -12.445,5.448 -4.665,0 -8.451,-1.424 -11.361,-4.272 -2.91,-2.848 -4.365,-6.563 -4.365,-11.144 0,-4.541 1.444,-8.246 4.334,-11.114 2.888,-2.869 6.645,-4.303 11.268,-4.303 3.178,0 6.047,0.681 8.606,2.043" id="path67"/>
    <path clip-path="url(#clipPath70)" transform="matrix(1.3333333,0,0,-1.3333333,848.45773,615.84973)" style="fill:#ffffff;fill-opacity:1;fill-rule:nonzero;stroke:none" d="m 0,0 -66.797,-64.139 -29.357,25.1 L -56.952,0 Z m 5.577,-156.225 h -60.768 l -55.19,54.217 -54.019,-54.217 h -60.474 l 84.256,79.518 L -220.764,0 h 59.888 c 18.981,-18.207 50.392,-47.39 94.236,-87.55 z" id="path69"/>
    <path clip-path="url(#clipPath72)" transform="matrix(1.3333333,0,0,-1.3333333,0,1440)" style="fill:#ffffff;fill-opacity:1;fill-rule:nonzero;stroke:none" d="m 505.542,479.878 h 4.023 v -17.387 h -4.023 z" id="path71"/>
    <path clip-path="url(#clipPath74)" transform="matrix(1.3333333,0,0,-1.3333333,699.23533,800.16293)" style="fill:#ffffff;fill-opacity:1;fill-rule:nonzero;stroke:none" d="M 0,0 H 3.956 V -17.387 H 0.67 l -8.649,10.548 v -10.548 h -3.977 V 0 h 3.329 L 0,-10.549 Z" id="path73"/>
    <path clip-path="url(#clipPath76)" transform="matrix(1.3333333,0,0,-1.3333333,720.8984,824.15027)" style="fill:#ffffff;fill-opacity:1;fill-rule:nonzero;stroke:none" d="m 0,0 c -1.773,0 -3.375,0.383 -4.805,1.151 -1.43,0.767 -2.552,1.836 -3.363,3.207 -0.813,1.37 -1.218,2.916 -1.218,4.637 0,1.721 0.405,3.267 1.218,4.638 0.811,1.37 1.936,2.439 3.374,3.207 1.438,0.767 3.051,1.151 4.839,1.151 1.49,0 2.845,-0.265 4.067,-0.794 1.222,-0.529 2.242,-1.293 3.062,-2.291 l -2.57,-2.391 c -1.177,1.371 -2.63,2.056 -4.358,2.056 -1.639,0 -2.976,-0.518 -4.012,-1.553 -1.035,-1.036 -1.553,-2.373 -1.553,-4.012 0,-1.639 0.518,-2.976 1.553,-4.011 1.036,-1.036 2.373,-1.553 4.012,-1.553 1.728,0 3.181,0.685 4.358,2.056 L 7.174,3.106 C 6.354,2.108 5.334,1.341 4.112,0.804 2.89,0.268 1.52,0 0,0" id="path75"/>
  </g>
</svg>